<?xml version="1.0" encoding="UTF-8" standalone="no" ?>
<!DOCTYPE svg PUBLIC "-//W3C//DTD SVG 1.1//EN" "http://www.w3.org/Graphics/SVG/1.1/DTD/svg11.dtd">
<svg xmlns="http://www.w3.org/2000/svg" xmlns:xlink="http://www.w3.org/1999/xlink" version="1.1" width="639" height="220" viewBox="0 0 639 220" xml:space="preserve">
<desc>Created with Fabric.js 3.6.6</desc>
<defs>
</defs>
<g transform="matrix(1 0 0 1 320 111)"  >
<g style=""   >
		<g transform="matrix(1 0 0 1 0 0)" id="background"  >
<rect style="stroke: none; stroke-width: 1; stroke-dasharray: none; stroke-linecap: butt; stroke-dashoffset: 0; stroke-linejoin: miter; stroke-miterlimit: 4; fill: rgb(33,35,43); fill-rule: nonzero; opacity: 1;"  x="-320" y="-200" rx="0" ry="0" width="640" height="400" />
</g>
		<g transform="matrix(1.04 0 0 1.04 47.13 -13.27)" id="text-0"  >
<path style="stroke: none; stroke-width: 1; stroke-dasharray: none; stroke-linecap: butt; stroke-dashoffset: 0; stroke-linejoin: miter; stroke-miterlimit: 4; fill: rgb(244,243,240); fill-rule: nonzero; opacity: 1;"  transform=" translate(-149.03, 17.82)" d="M 4.25 -35 L 8.25 -35 L 8.25 -3.5 L 24.6 -3.5 L 24.6 0 L 4.25 0 L 4.25 -35 Z M 30.6 0 L 30.6 -25 L 34.3 -25 L 34.3 0 L 30.6 0 Z M 32.5 -30 L 32.5 -30 Q 31.35 -30 30.6 -30.75 Q 29.85 -31.5 29.85 -32.6 L 29.85 -32.6 Q 29.85 -33.75 30.6 -34.5 Q 31.35 -35.25 32.5 -35.25 L 32.5 -35.25 Q 33.55 -35.25 34.32 -34.5 Q 35.1 -33.75 35.1 -32.6 L 35.1 -32.6 Q 35.1 -31.5 34.32 -30.75 Q 33.55 -30 32.5 -30 Z M 61.85 0 L 58.4 0 L 58.1 -4.5 Q 57.05 -2.2 55 -0.93 Q 52.95 0.35 49.8 0.35 L 49.8 0.35 Q 47.1 0.35 45.2 -0.5 Q 43.3 -1.35 42.27 -2.93 Q 41.25 -4.5 41.25 -6.65 L 41.25 -6.65 Q 41.25 -9.8 43.6 -11.83 Q 45.95 -13.85 50.4 -14.3 L 50.4 -14.3 L 58.1 -15.15 L 58.1 -17.15 Q 58.1 -19.25 56.55 -20.53 Q 55 -21.8 52.35 -21.8 L 52.35 -21.8 Q 49.75 -21.8 48.02 -20.6 Q 46.3 -19.4 45.65 -17.15 L 45.65 -17.15 L 42.25 -18.35 Q 43.25 -21.65 45.92 -23.5 Q 48.6 -25.35 52.45 -25.35 L 52.45 -25.35 Q 56.9 -25.35 59.37 -23.08 Q 61.85 -20.8 61.85 -16.9 L 61.85 -16.9 L 61.85 0 Z M 58.1 -11.15 L 58.1 -11.95 L 50.35 -11.05 Q 47.85 -10.75 46.55 -9.68 Q 45.25 -8.6 45.25 -6.85 L 45.25 -6.85 Q 45.25 -5.1 46.52 -4.05 Q 47.8 -3 50.2 -3 L 50.2 -3 Q 52.95 -3 54.7 -4.1 Q 56.45 -5.2 57.27 -7.08 Q 58.1 -8.95 58.1 -11.15 L 58.1 -11.15 Z M 69.14 0 L 69.14 -25 L 72.59 -25 L 72.84 -21.4 Q 73.94 -23.2 75.82 -24.28 Q 77.69 -25.35 80.29 -25.35 L 80.29 -25.35 Q 82.94 -25.35 85.12 -24.08 Q 87.29 -22.8 88.49 -20.3 L 88.49 -20.3 Q 89.64 -22.85 91.99 -24.1 Q 94.34 -25.35 97.19 -25.35 L 97.19 -25.35 Q 99.99 -25.35 102.14 -24.13 Q 104.29 -22.9 105.49 -20.48 Q 106.69 -18.05 106.69 -14.4 L 106.69 -14.4 L 106.69 0 L 102.94 0 L 102.94 -13.95 Q 102.94 -17.85 101.27 -19.88 Q 99.59 -21.9 96.49 -21.9 L 96.49 -21.9 Q 93.34 -21.9 91.49 -19.73 Q 89.64 -17.55 89.64 -13.3 L 89.64 -13.3 L 89.64 0 L 85.89 0 L 85.89 -13.95 Q 85.89 -17.85 84.29 -19.88 Q 82.69 -21.9 79.59 -21.9 L 79.59 -21.9 Q 76.44 -21.9 74.67 -19.73 Q 72.89 -17.55 72.89 -13.3 L 72.89 -13.3 L 72.89 0 L 69.14 0 Z M 128.34 -35 L 139.89 -35 Q 145.69 -35 149.81 -32.88 Q 153.94 -30.75 156.16 -26.8 Q 158.39 -22.85 158.39 -17.4 L 158.39 -17.4 Q 158.39 -12 156.16 -8.1 Q 153.94 -4.2 149.81 -2.1 Q 145.69 0 139.89 0 L 139.89 0 L 128.34 0 L 128.34 -35 Z M 132.34 -3.5 L 139.89 -3.5 Q 147.04 -3.5 150.69 -7.15 Q 154.34 -10.8 154.34 -17.4 L 154.34 -17.4 Q 154.34 -24.05 150.69 -27.78 Q 147.04 -31.5 139.89 -31.5 L 139.89 -31.5 L 132.34 -31.5 L 132.34 -3.5 Z M 174.89 0.35 L 174.89 0.35 Q 171.39 0.35 168.66 -1.35 Q 165.94 -3.05 164.39 -6 Q 162.84 -8.95 162.84 -12.75 L 162.84 -12.75 Q 162.84 -16.4 164.39 -19.25 Q 165.94 -22.1 168.64 -23.73 Q 171.34 -25.35 174.79 -25.35 L 174.79 -25.35 Q 178.19 -25.35 180.86 -23.85 Q 183.54 -22.35 185.04 -19.7 Q 186.54 -17.05 186.44 -13.65 L 186.44 -13.65 Q 186.44 -13.1 186.39 -12.5 Q 186.34 -11.9 186.29 -11.2 L 186.29 -11.2 L 166.94 -11.2 Q 167.04 -8.85 168.09 -7.05 Q 169.14 -5.25 170.86 -4.23 Q 172.59 -3.2 174.79 -3.2 L 174.79 -3.2 Q 177.69 -3.2 179.71 -4.3 Q 181.74 -5.4 182.64 -7.45 L 182.64 -7.45 L 185.89 -6.15 Q 184.39 -3 181.54 -1.33 Q 178.69 0.35 174.89 0.35 Z M 166.99 -14.45 L 182.34 -14.45 Q 182.39 -16.6 181.41 -18.25 Q 180.44 -19.9 178.69 -20.85 Q 176.94 -21.8 174.64 -21.8 L 174.64 -21.8 Q 172.64 -21.8 170.99 -20.85 Q 169.34 -19.9 168.26 -18.23 Q 167.19 -16.55 166.99 -14.45 L 166.99 -14.45 Z M 192.58 0 L 192.58 -25 L 196.03 -25 L 196.28 -21.4 Q 197.38 -23.2 199.26 -24.28 Q 201.13 -25.35 203.73 -25.35 L 203.73 -25.35 Q 206.38 -25.35 208.56 -24.08 Q 210.73 -22.8 211.93 -20.3 L 211.93 -20.3 Q 213.08 -22.85 215.43 -24.1 Q 217.78 -25.35 220.63 -25.35 L 220.63 -25.35 Q 223.43 -25.35 225.58 -24.13 Q 227.73 -22.9 228.93 -20.48 Q 230.13 -18.05 230.13 -14.4 L 230.13 -14.4 L 230.13 0 L 226.38 0 L 226.38 -13.95 Q 226.38 -17.85 224.71 -19.88 Q 223.03 -21.9 219.93 -21.9 L 219.93 -21.9 Q 216.78 -21.9 214.93 -19.73 Q 213.08 -17.55 213.08 -13.3 L 213.08 -13.3 L 213.08 0 L 209.33 0 L 209.33 -13.95 Q 209.33 -17.85 207.73 -19.88 Q 206.13 -21.9 203.03 -21.9 L 203.03 -21.9 Q 199.88 -21.9 198.11 -19.73 Q 196.33 -17.55 196.33 -13.3 L 196.33 -13.3 L 196.33 0 L 192.58 0 Z M 237.38 0 L 237.38 -36 L 241.18 -36 L 241.18 -14.15 L 243.48 -14.15 L 253.33 -25 L 258.63 -25 L 246.83 -12.5 L 258.68 0 L 253.33 0 L 243.48 -10.9 L 241.18 -10.9 L 241.18 0 L 237.38 0 Z M 264.03 0 L 264.03 -25 L 267.73 -25 L 267.73 0 L 264.03 0 Z M 265.93 -30 L 265.93 -30 Q 264.78 -30 264.03 -30.75 Q 263.28 -31.5 263.28 -32.6 L 263.28 -32.6 Q 263.28 -33.75 264.03 -34.5 Q 264.78 -35.25 265.93 -35.25 L 265.93 -35.25 Q 266.98 -35.25 267.75 -34.5 Q 268.53 -33.75 268.53 -32.6 L 268.53 -32.6 Q 268.53 -31.5 267.75 -30.75 Q 266.98 -30 265.93 -30 Z M 274.63 -6.45 L 278.22 -7.65 Q 278.52 -6.15 279.32 -5.18 Q 280.13 -4.2 281.4 -3.7 Q 282.68 -3.2 284.38 -3.2 L 284.38 -3.2 Q 287.02 -3.2 288.4 -4.23 Q 289.77 -5.25 289.77 -6.8 L 289.77 -6.8 Q 289.77 -8.1 288.95 -8.9 Q 288.13 -9.7 286.77 -10.23 Q 285.43 -10.75 283.77 -11.15 L 283.77 -11.15 Q 282.47 -11.45 280.97 -11.88 Q 279.47 -12.3 278.13 -13.05 Q 276.77 -13.8 275.93 -15 Q 275.07 -16.2 275.07 -18.15 L 275.07 -18.15 Q 275.07 -20.3 276.25 -21.93 Q 277.43 -23.55 279.5 -24.45 Q 281.57 -25.35 284.27 -25.35 L 284.27 -25.35 Q 287.38 -25.35 289.8 -24 Q 292.22 -22.65 293.18 -19.8 L 293.18 -19.8 L 289.68 -18.6 Q 289.32 -19.9 288.4 -20.6 Q 287.47 -21.3 286.35 -21.55 Q 285.22 -21.8 284.13 -21.8 L 284.13 -21.8 Q 281.88 -21.8 280.5 -20.93 Q 279.13 -20.05 279.13 -18.3 L 279.13 -18.3 Q 279.13 -17.35 279.57 -16.73 Q 280.02 -16.1 280.82 -15.7 Q 281.63 -15.3 282.72 -15.03 Q 283.82 -14.75 285.13 -14.4 L 285.13 -14.4 Q 286.57 -14.05 288.07 -13.53 Q 289.57 -13 290.88 -12.18 Q 292.18 -11.35 293 -10.08 Q 293.82 -8.8 293.82 -6.9 L 293.82 -6.9 Q 293.82 -4.7 292.63 -3.08 Q 291.43 -1.45 289.3 -0.55 Q 287.18 0.35 284.38 0.35 L 284.38 0.35 Q 280.52 0.35 278 -1.38 Q 275.47 -3.1 274.63 -6.45 L 274.63 -6.45 Z" stroke-linecap="round" />
</g>
		<g transform="matrix(0.36 0 0 0.36 -7.64 23.37)" id="text-1"  >
<path style="stroke: none; stroke-width: 1; stroke-dasharray: none; stroke-linecap: butt; stroke-dashoffset: 0; stroke-linejoin: miter; stroke-miterlimit: 4; fill: rgb(244,243,240); fill-rule: nonzero; opacity: 1;"  transform=" translate(-268.18, 12.7)" d="M 11.9 0.6 L 11.9 0.6 Q 9.6 0.6 7.75 -0.28 Q 5.9 -1.15 4.83 -3.1 Q 3.75 -5.05 3.75 -8.15 L 3.75 -8.15 L 3.75 -37 L 8.25 -37 L 8.25 -8.6 Q 8.25 -5.9 9.38 -4.6 Q 10.5 -3.3 12.5 -3.3 L 12.5 -3.3 Q 13.45 -3.3 14.38 -3.53 Q 15.3 -3.75 15.95 -4.05 L 15.95 -4.05 L 17.05 -0.4 Q 16.15 0 14.83 0.3 Q 13.5 0.6 11.9 0.6 Z M 30.95 0.6 L 30.95 0.6 Q 25.35 0.6 22.07 -2.98 Q 18.8 -6.55 18.8 -13 L 18.8 -13 Q 18.8 -16.9 20.27 -19.98 Q 21.75 -23.05 24.4 -24.83 Q 27.05 -26.6 30.55 -26.6 L 30.55 -26.6 Q 34.3 -26.6 36.77 -24.98 Q 39.25 -23.35 40.5 -20.6 Q 41.75 -17.85 41.75 -14.55 L 41.75 -14.55 Q 41.75 -12.8 41.6 -11.15 L 41.6 -11.15 L 23.4 -11.15 Q 23.85 -7.5 25.95 -5.45 Q 28.05 -3.4 31.5 -3.4 L 31.5 -3.4 Q 33.75 -3.4 35.55 -3.88 Q 37.35 -4.35 39 -5.1 L 39 -5.1 L 40.05 -1.25 Q 38.25 -0.45 36 0.08 Q 33.75 0.6 30.95 0.6 Z M 23.35 -14.8 L 23.35 -14.8 L 37.6 -14.8 Q 37.6 -18.6 35.7 -20.65 Q 33.8 -22.7 30.45 -22.7 L 30.45 -22.7 Q 27.55 -22.7 25.65 -20.68 Q 23.75 -18.65 23.35 -14.8 Z M 57.7 0.6 L 57.7 0.6 Q 54.45 0.6 51.8 -1.05 Q 49.15 -2.7 47.57 -5.73 Q 46 -8.75 46 -12.85 L 46 -12.85 Q 46 -16.75 47.57 -19.85 Q 49.15 -22.95 51.92 -24.78 Q 54.7 -26.6 58.3 -26.6 L 58.3 -26.6 Q 60.55 -26.6 62.37 -25.83 Q 64.2 -25.05 65.55 -23.9 L 65.55 -23.9 L 65.55 -26 L 69.65 -26 L 69.65 -6.3 Q 69.65 -4.4 70.57 -3.83 Q 71.5 -3.25 72.59 -3.25 L 72.59 -3.25 L 71.65 0.25 Q 66.84 0.25 65.84 -3.65 L 65.84 -3.65 Q 64.7 -2.05 62.72 -0.73 Q 60.75 0.6 57.7 0.6 Z M 58.7 -3.4 L 58.7 -3.4 Q 60.6 -3.4 62.3 -4.33 Q 64 -5.25 65.15 -6.65 L 65.15 -6.65 L 65.15 -20.6 Q 63.8 -21.55 62.17 -22.13 Q 60.55 -22.7 58.75 -22.7 L 58.75 -22.7 Q 56.35 -22.7 54.52 -21.48 Q 52.7 -20.25 51.65 -18.07 Q 50.6 -15.9 50.6 -13 L 50.6 -13 Q 50.6 -10.2 51.65 -8.03 Q 52.7 -5.85 54.55 -4.63 Q 56.4 -3.4 58.7 -3.4 Z M 87.94 0.6 L 87.94 0.6 Q 84.74 0.6 82.09 -1.05 Q 79.44 -2.7 77.89 -5.73 Q 76.34 -8.75 76.34 -12.85 L 76.34 -12.85 Q 76.34 -16.8 77.92 -19.9 Q 79.49 -23 82.12 -24.8 Q 84.74 -26.6 87.89 -26.6 L 87.89 -26.6 Q 90.49 -26.6 92.37 -25.55 Q 94.24 -24.5 95.29 -23.4 L 95.29 -23.4 L 95.29 -37 L 99.79 -37 L 99.79 -6.3 Q 99.79 -4.4 100.72 -3.83 Q 101.64 -3.25 102.74 -3.25 L 102.74 -3.25 L 101.79 0.25 Q 97.04 0.25 95.99 -3.55 L 95.99 -3.55 Q 94.89 -2 92.92 -0.7 Q 90.94 0.6 87.94 0.6 Z M 88.94 -3.4 L 88.94 -3.4 Q 90.79 -3.4 92.47 -4.28 Q 94.14 -5.15 95.29 -6.55 L 95.29 -6.55 L 95.29 -19.45 Q 94.34 -20.65 92.64 -21.68 Q 90.94 -22.7 88.89 -22.7 L 88.89 -22.7 Q 86.49 -22.7 84.69 -21.4 Q 82.89 -20.1 81.92 -17.93 Q 80.94 -15.75 80.94 -13 L 80.94 -13 Q 80.94 -10.25 81.99 -8.08 Q 83.04 -5.9 84.87 -4.65 Q 86.69 -3.4 88.94 -3.4 Z M 135.44 0.6 L 135.44 0.6 Q 133.19 0.6 131.21 -0.23 Q 129.24 -1.05 127.94 -2.15 L 127.94 -2.15 L 127.94 0 L 123.74 0 L 123.74 -37 L 128.24 -37 L 128.24 -23.3 Q 129.24 -24.45 131.16 -25.53 Q 133.09 -26.6 135.74 -26.6 L 135.74 -26.6 Q 138.74 -26.6 141.36 -25.03 Q 143.99 -23.45 145.59 -20.48 Q 147.19 -17.5 147.19 -13.25 L 147.19 -13.25 Q 147.19 -10.15 146.19 -7.6 Q 145.19 -5.05 143.51 -3.23 Q 141.84 -1.4 139.74 -0.4 Q 137.64 0.6 135.44 0.6 Z M 134.24 -3.4 L 134.24 -3.4 Q 136.69 -3.4 138.56 -4.6 Q 140.44 -5.8 141.51 -8 Q 142.59 -10.2 142.59 -13.1 L 142.59 -13.1 Q 142.59 -16.1 141.51 -18.25 Q 140.44 -20.4 138.66 -21.55 Q 136.89 -22.7 134.74 -22.7 L 134.74 -22.7 Q 132.59 -22.7 130.86 -21.63 Q 129.14 -20.55 128.24 -19.3 L 128.24 -19.3 L 128.24 -5.4 Q 129.39 -4.5 130.94 -3.95 Q 132.49 -3.4 134.24 -3.4 Z M 163.38 0.6 L 163.38 0.6 Q 160.13 0.6 157.49 -1.05 Q 154.84 -2.7 153.26 -5.73 Q 151.69 -8.75 151.69 -12.85 L 151.69 -12.85 Q 151.69 -16.75 153.26 -19.85 Q 154.84 -22.95 157.61 -24.78 Q 160.38 -26.6 163.99 -26.6 L 163.99 -26.6 Q 166.24 -26.6 168.06 -25.83 Q 169.88 -25.05 171.24 -23.9 L 171.24 -23.9 L 171.24 -26 L 175.34 -26 L 175.34 -6.3 Q 175.34 -4.4 176.26 -3.83 Q 177.19 -3.25 178.28 -3.25 L 178.28 -3.25 L 177.34 0.25 Q 172.53 0.25 171.53 -3.65 L 171.53 -3.65 Q 170.38 -2.05 168.41 -0.73 Q 166.44 0.6 163.38 0.6 Z M 164.38 -3.4 L 164.38 -3.4 Q 166.28 -3.4 167.99 -4.33 Q 169.69 -5.25 170.84 -6.65 L 170.84 -6.65 L 170.84 -20.6 Q 169.49 -21.55 167.86 -22.13 Q 166.24 -22.7 164.44 -22.7 L 164.44 -22.7 Q 162.03 -22.7 160.21 -21.48 Q 158.38 -20.25 157.34 -18.07 Q 156.28 -15.9 156.28 -13 L 156.28 -13 Q 156.28 -10.2 157.34 -8.03 Q 158.38 -5.85 160.24 -4.63 Q 162.09 -3.4 164.38 -3.4 Z M 194.28 0.6 L 194.28 0.6 Q 190.58 0.6 187.81 -1.13 Q 185.03 -2.85 183.53 -5.93 Q 182.03 -9 182.03 -13 L 182.03 -13 Q 182.03 -16.75 183.56 -19.85 Q 185.08 -22.95 187.93 -24.78 Q 190.78 -26.6 194.63 -26.6 L 194.63 -26.6 Q 196.83 -26.6 198.51 -26.2 Q 200.18 -25.8 201.73 -25.05 L 201.73 -25.05 L 200.38 -21.25 Q 198.98 -21.95 197.71 -22.28 Q 196.43 -22.6 194.88 -22.6 L 194.88 -22.6 Q 191.38 -22.6 189.01 -20.08 Q 186.63 -17.55 186.63 -13.1 L 186.63 -13.1 Q 186.63 -10.4 187.63 -8.2 Q 188.63 -6 190.41 -4.7 Q 192.18 -3.4 194.58 -3.4 L 194.58 -3.4 Q 196.48 -3.4 197.83 -3.83 Q 199.18 -4.25 200.73 -5.05 L 200.73 -5.05 L 202.13 -1.25 Q 200.58 -0.4 198.66 0.1 Q 196.73 0.6 194.28 0.6 Z M 228.43 -2.5 L 225.33 0.5 L 211.88 -13.35 L 211.88 0 L 207.38 0 L 207.38 -37 L 211.88 -37 L 211.88 -15.85 L 223.63 -26.5 L 226.23 -23.65 L 216.18 -14.75 L 228.43 -2.5 Z M 242.58 0.6 L 242.58 0.6 Q 236.98 0.6 233.7 -2.98 Q 230.43 -6.55 230.43 -13 L 230.43 -13 Q 230.43 -16.9 231.9 -19.98 Q 233.38 -23.05 236.03 -24.83 Q 238.68 -26.6 242.18 -26.6 L 242.18 -26.6 Q 245.93 -26.6 248.4 -24.98 Q 250.88 -23.35 252.13 -20.6 Q 253.38 -17.85 253.38 -14.55 L 253.38 -14.55 Q 253.38 -12.8 253.23 -11.15 L 253.23 -11.15 L 235.03 -11.15 Q 235.48 -7.5 237.58 -5.45 Q 239.68 -3.4 243.13 -3.4 L 243.13 -3.4 Q 245.38 -3.4 247.18 -3.88 Q 248.98 -4.35 250.63 -5.1 L 250.63 -5.1 L 251.68 -1.25 Q 249.88 -0.45 247.63 0.08 Q 245.38 0.6 242.58 0.6 Z M 234.98 -14.8 L 234.98 -14.8 L 249.23 -14.8 Q 249.23 -18.6 247.33 -20.65 Q 245.43 -22.7 242.08 -22.7 L 242.08 -22.7 Q 239.18 -22.7 237.28 -20.68 Q 235.38 -18.65 234.98 -14.8 Z M 263.88 0 L 259.38 0 L 259.38 -26 L 263.73 -26 L 263.73 -21.65 Q 265.13 -23.75 267.3 -25.18 Q 269.48 -26.6 272.48 -26.6 L 272.48 -26.6 Q 276.88 -26.6 279.05 -23.95 Q 281.23 -21.3 281.23 -16.95 L 281.23 -16.95 L 281.23 0 L 276.73 0 L 276.73 -16.45 Q 276.73 -19.25 275.4 -20.95 Q 274.07 -22.65 271.73 -22.65 L 271.73 -22.65 Q 269.43 -22.65 267.38 -21.03 Q 265.32 -19.4 263.88 -17.2 L 263.88 -17.2 L 263.88 0 Z M 298.82 0.6 L 298.82 0.6 Q 295.62 0.6 292.97 -1.05 Q 290.32 -2.7 288.77 -5.73 Q 287.22 -8.75 287.22 -12.85 L 287.22 -12.85 Q 287.22 -16.8 288.8 -19.9 Q 290.37 -23 293 -24.8 Q 295.62 -26.6 298.77 -26.6 L 298.77 -26.6 Q 301.37 -26.6 303.25 -25.55 Q 305.12 -24.5 306.17 -23.4 L 306.17 -23.4 L 306.17 -37 L 310.67 -37 L 310.67 -6.3 Q 310.67 -4.4 311.6 -3.83 Q 312.52 -3.25 313.62 -3.25 L 313.62 -3.25 L 312.67 0.25 Q 307.92 0.25 306.87 -3.55 L 306.87 -3.55 Q 305.77 -2 303.8 -0.7 Q 301.82 0.6 298.82 0.6 Z M 299.82 -3.4 L 299.82 -3.4 Q 301.67 -3.4 303.35 -4.28 Q 305.02 -5.15 306.17 -6.55 L 306.17 -6.55 L 306.17 -19.45 Q 305.22 -20.65 303.52 -21.68 Q 301.82 -22.7 299.77 -22.7 L 299.77 -22.7 Q 297.37 -22.7 295.57 -21.4 Q 293.77 -20.1 292.8 -17.93 Q 291.82 -15.75 291.82 -13 L 291.82 -13 Q 291.82 -10.25 292.87 -8.08 Q 293.92 -5.9 295.75 -4.65 Q 297.57 -3.4 299.82 -3.4 Z M 345.02 0.6 L 345.02 0.6 Q 339.42 0.6 336.14 -2.98 Q 332.87 -6.55 332.87 -13 L 332.87 -13 Q 332.87 -16.9 334.34 -19.98 Q 335.82 -23.05 338.47 -24.83 Q 341.12 -26.6 344.62 -26.6 L 344.62 -26.6 Q 348.37 -26.6 350.84 -24.98 Q 353.32 -23.35 354.57 -20.6 Q 355.82 -17.85 355.82 -14.55 L 355.82 -14.55 Q 355.82 -12.8 355.67 -11.15 L 355.67 -11.15 L 337.47 -11.15 Q 337.92 -7.5 340.02 -5.45 Q 342.12 -3.4 345.57 -3.4 L 345.57 -3.4 Q 347.82 -3.4 349.62 -3.88 Q 351.42 -4.35 353.07 -5.1 L 353.07 -5.1 L 354.12 -1.25 Q 352.32 -0.45 350.07 0.08 Q 347.82 0.6 345.02 0.6 Z M 337.42 -14.8 L 337.42 -14.8 L 351.67 -14.8 Q 351.67 -18.6 349.77 -20.65 Q 347.87 -22.7 344.52 -22.7 L 344.52 -22.7 Q 341.62 -22.7 339.72 -20.68 Q 337.82 -18.65 337.42 -14.8 Z M 366.31 0 L 361.81 0 L 361.81 -26 L 366.17 -26 L 366.17 -21.65 Q 367.56 -23.75 369.74 -25.18 Q 371.92 -26.6 374.92 -26.6 L 374.92 -26.6 Q 379.31 -26.6 381.49 -23.95 Q 383.67 -21.3 383.67 -16.95 L 383.67 -16.95 L 383.67 0 L 379.17 0 L 379.17 -16.45 Q 379.17 -19.25 377.84 -20.95 Q 376.51 -22.65 374.17 -22.65 L 374.17 -22.65 Q 371.87 -22.65 369.81 -21.03 Q 367.76 -19.4 366.31 -17.2 L 366.31 -17.2 L 366.31 0 Z M 400.96 11.6 L 400.96 11.6 Q 398.66 11.6 396.49 11.05 Q 394.31 10.5 392.61 9.4 L 392.61 9.4 L 394.26 5.5 Q 395.46 6.45 397.06 7.08 Q 398.66 7.7 400.96 7.7 L 400.96 7.7 Q 404.51 7.7 406.54 5.83 Q 408.56 3.95 408.56 -0.15 L 408.56 -0.15 L 408.56 -3.35 Q 407.56 -2.15 405.69 -1.07 Q 403.81 0 401.21 0 L 401.21 0 Q 398.26 0 395.61 -1.53 Q 392.96 -3.05 391.31 -6 Q 389.66 -8.95 389.66 -13.1 L 389.66 -13.1 Q 389.66 -17 391.29 -20.05 Q 392.91 -23.1 395.66 -24.85 Q 398.41 -26.6 401.71 -26.6 L 401.71 -26.6 Q 403.91 -26.6 405.71 -25.85 Q 407.51 -25.1 408.81 -24 L 408.81 -24 L 408.81 -26 L 412.91 -26 L 412.91 -0.6 Q 412.91 3.7 411.41 6.4 Q 409.91 9.1 407.24 10.35 Q 404.56 11.6 400.96 11.6 Z M 402.21 -4 L 402.21 -4 Q 404.21 -4 405.81 -4.9 Q 407.41 -5.8 408.41 -7 L 408.41 -7 L 408.41 -20.6 Q 407.31 -21.4 405.76 -22.05 Q 404.21 -22.7 402.16 -22.7 L 402.16 -22.7 Q 400.11 -22.7 398.31 -21.6 Q 396.51 -20.5 395.39 -18.43 Q 394.26 -16.35 394.26 -13.35 L 394.26 -13.35 Q 394.26 -10.5 395.39 -8.4 Q 396.51 -6.3 398.31 -5.15 Q 400.11 -4 402.21 -4 Z M 425.16 0 L 420.66 0 L 420.66 -26 L 425.16 -26 L 425.16 0 Z M 422.91 -30.45 L 422.91 -30.45 Q 421.61 -30.45 420.69 -31.4 Q 419.76 -32.35 419.76 -33.6 L 419.76 -33.6 Q 419.76 -35.05 420.61 -35.9 Q 421.46 -36.75 422.91 -36.75 L 422.91 -36.75 Q 424.21 -36.75 425.14 -35.83 Q 426.06 -34.9 426.06 -33.6 L 426.06 -33.6 Q 426.06 -32.2 425.21 -31.33 Q 424.36 -30.45 422.91 -30.45 Z M 437.66 0 L 433.16 0 L 433.16 -26 L 437.51 -26 L 437.51 -21.65 Q 438.91 -23.75 441.08 -25.18 Q 443.26 -26.6 446.26 -26.6 L 446.26 -26.6 Q 450.66 -26.6 452.83 -23.95 Q 455.01 -21.3 455.01 -16.95 L 455.01 -16.95 L 455.01 0 L 450.51 0 L 450.51 -16.45 Q 450.51 -19.25 449.18 -20.95 Q 447.86 -22.65 445.51 -22.65 L 445.51 -22.65 Q 443.21 -22.65 441.16 -21.03 Q 439.11 -19.4 437.66 -17.2 L 437.66 -17.2 L 437.66 0 Z M 473.16 0.6 L 473.16 0.6 Q 467.56 0.6 464.28 -2.98 Q 461.01 -6.55 461.01 -13 L 461.01 -13 Q 461.01 -16.9 462.48 -19.98 Q 463.96 -23.05 466.61 -24.83 Q 469.26 -26.6 472.76 -26.6 L 472.76 -26.6 Q 476.51 -26.6 478.98 -24.98 Q 481.46 -23.35 482.71 -20.6 Q 483.96 -17.85 483.96 -14.55 L 483.96 -14.55 Q 483.96 -12.8 483.81 -11.15 L 483.81 -11.15 L 465.61 -11.15 Q 466.06 -7.5 468.16 -5.45 Q 470.26 -3.4 473.71 -3.4 L 473.71 -3.4 Q 475.96 -3.4 477.76 -3.88 Q 479.56 -4.35 481.21 -5.1 L 481.21 -5.1 L 482.26 -1.25 Q 480.46 -0.45 478.21 0.08 Q 475.96 0.6 473.16 0.6 Z M 465.56 -14.8 L 465.56 -14.8 L 479.81 -14.8 Q 479.81 -18.6 477.91 -20.65 Q 476.01 -22.7 472.66 -22.7 L 472.66 -22.7 Q 469.76 -22.7 467.86 -20.68 Q 465.96 -18.65 465.56 -14.8 Z M 500.35 0.6 L 500.35 0.6 Q 494.75 0.6 491.48 -2.98 Q 488.2 -6.55 488.2 -13 L 488.2 -13 Q 488.2 -16.9 489.68 -19.98 Q 491.15 -23.05 493.8 -24.83 Q 496.45 -26.6 499.95 -26.6 L 499.95 -26.6 Q 503.7 -26.6 506.18 -24.98 Q 508.65 -23.35 509.9 -20.6 Q 511.15 -17.85 511.15 -14.55 L 511.15 -14.55 Q 511.15 -12.8 511 -11.15 L 511 -11.15 L 492.8 -11.15 Q 493.25 -7.5 495.35 -5.45 Q 497.45 -3.4 500.9 -3.4 L 500.9 -3.4 Q 503.15 -3.4 504.95 -3.88 Q 506.75 -4.35 508.4 -5.1 L 508.4 -5.1 L 509.45 -1.25 Q 507.65 -0.45 505.4 0.08 Q 503.15 0.6 500.35 0.6 Z M 492.75 -14.8 L 492.75 -14.8 L 507 -14.8 Q 507 -18.6 505.1 -20.65 Q 503.2 -22.7 499.85 -22.7 L 499.85 -22.7 Q 496.95 -22.7 495.05 -20.68 Q 493.15 -18.65 492.75 -14.8 Z M 521.65 0 L 517.15 0 L 517.15 -26 L 521.5 -26 L 521.5 -20.35 Q 522.15 -22 523.25 -23.43 Q 524.35 -24.85 526 -25.73 Q 527.65 -26.6 529.85 -26.6 L 529.85 -26.6 Q 530.6 -26.6 531.35 -26.53 Q 532.1 -26.45 532.6 -26.3 L 532.6 -26.3 L 531.25 -21.65 Q 530.3 -22.05 529 -22.05 L 529 -22.05 Q 527.15 -22.05 525.48 -21 Q 523.8 -19.95 522.73 -17.75 Q 521.65 -15.55 521.65 -12.15 L 521.65 -12.15 L 521.65 0 Z" stroke-linecap="round" />
</g>
		<g transform="matrix(0.99 0 0 0.99 -151.94 0)" id="icon-0"  >
<path style="stroke: none; stroke-width: 1; stroke-dasharray: none; stroke-linecap: butt; stroke-dashoffset: 0; stroke-linejoin: miter; stroke-miterlimit: 4; fill: rgb(47,132,255); fill-rule: nonzero; opacity: 1;"  transform=" translate(-53.21, -50)" d="M 61.666 28.527 L 61.102 19.634 H 61.096 V 16.257 H 58.845 V 10.628 L 53.205 5 L 47.588 10.628 V 16.257 H 45.336 V 19.724 L 44.774 28.521 C 30.207 32.268 19.442 45.491 19.442 61.228 C 19.441 79.88 34.562 95 53.213 95 S 86.984 79.88 86.984 61.229 C 86.984 45.497 76.226 32.279 61.666 28.527 M 65.481 32.185 A 31.5 31.5 0 0 1 75.501 38.941 A 31.4 31.4 0 0 1 82.256 48.961 A 31.3 31.3 0 0 1 84.733 61.229 C 84.733 65.315 83.962 69.284 82.446 73.033 A 23.4 23.4 0 0 1 82.192 69.612 V 66.798 H 82.19 L 82.191 66.786 C 82.191 60.569 77.151 55.529 70.934 55.529 H 65.304 C 64.652 55.529 64.013 55.586 63.391 55.692 L 61.816 30.9 A 31 31 0 0 1 65.481 32.185 M 55.071 78.592 A 22.9 22.9 0 0 1 53.262 69.997 L 54.075 69.184 C 54.433 74.141 58.566 78.053 63.615 78.053 A 9.53 9.53 0 0 0 68.623 76.638 A 14.7 14.7 0 0 1 66.645 79.088 A 14.52 14.52 0 0 1 57.754 83.303 A 23 23 0 0 1 55.071 78.592 M 54.075 66 L 53.259 66.818 V 66.784 C 53.259 63.305 51.681 60.196 49.202 58.131 L 60.569 46.764 L 61.174 56.309 C 57.231 57.865 54.379 61.583 54.075 66 M 54.342 18.509 V 19.634 H 52.091 V 18.509 z M 50.422 21.887 L 47.252 25.057 L 47.454 21.887 z M 47.034 28.459 L 53.605 21.887 H 58.988 L 59.432 28.876 L 46.159 42.148 z M 45.943 45.549 L 59.622 31.869 L 60.379 43.768 L 47.299 56.848 A 11 11 0 0 0 45.275 56.01 z M 58.845 19.635 H 56.593 V 18.51 H 58.845 z M 53.208 7.687 L 55.027 9.503 H 51.395 z M 49.488 11.755 H 56.943 V 16.257 H 49.488 z M 47.588 18.509 H 49.839 V 19.634 H 47.588 z M 21.692 61.229 A 31.3 31.3 0 0 1 24.169 48.961 A 31.4 31.4 0 0 1 30.925 38.941 A 31.4 31.4 0 0 1 44.624 30.895 L 43.048 55.576 A 11 11 0 0 0 42.002 55.527 H 36.374 C 30.156 55.527 25.117 60.567 25.117 66.784 V 68.484 C 25.117 73.768 29.401 78.052 34.685 78.052 C 36.521 78.052 38.235 77.533 39.692 76.637 A 14.7 14.7 0 0 1 37.715 79.087 A 14.53 14.53 0 0 1 30.466 83.045 A 31.4 31.4 0 0 1 24.169 73.495 A 31.3 31.3 0 0 1 21.692 61.229 M 40.944 90.272 A 31.4 31.4 0 0 1 32.369 84.872 C 39.252 82.74 44.252 76.325 44.252 68.742 H 44.246 C 44.249 68.657 44.253 68.572 44.253 68.486 V 68.337 A 5.629 5.629 0 1 0 34.856 72.518 L 36.454 70.921 A 3.37 3.37 0 0 1 35.247 68.337 A 3.38 3.38 0 0 1 38.625 64.961 A 3.38 3.38 0 0 1 42.001 68.337 V 68.486 C 42.001 72.521 38.719 75.803 34.685 75.803 C 30.65 75.803 27.368 72.521 27.368 68.486 V 66.798 H 27.369 L 27.368 66.786 C 27.368 61.821 31.408 57.78 36.374 57.78 H 42.002 C 46.968 57.78 51.008 61.821 51.008 66.786 V 69.612 C 51.008 78.73 55.826 86.721 63.055 91.182 A 31.4 31.4 0 0 1 53.214 92.749 A 31.3 31.3 0 0 1 40.944 90.272 M 75.501 83.517 A 31.4 31.4 0 0 1 65.786 90.139 A 23 23 0 0 1 59.443 85.332 C 67.266 83.858 73.185 76.991 73.185 68.741 H 73.178 C 73.181 68.656 73.185 68.571 73.185 68.485 V 68.336 A 5.63 5.63 0 1 0 63.787 72.517 L 65.385 70.92 A 3.37 3.37 0 0 1 64.179 68.336 A 3.38 3.38 0 0 1 67.556 64.96 A 3.38 3.38 0 0 1 70.934 68.336 V 68.485 C 70.934 72.52 67.652 75.802 63.616 75.802 S 56.299 72.52 56.299 68.485 V 66.785 C 56.299 61.82 60.339 57.779 65.305 57.779 H 70.935 C 75.901 57.779 79.94 61.82 79.94 66.785 V 69.611 C 79.94 71.956 80.261 74.227 80.858 76.383 A 31.6 31.6 0 0 1 75.501 83.517" stroke-linecap="round" />
</g>
		<g transform="matrix(0.99 0 0 0.99 -178.14 -30.23)" id="icon-0"  >
<path style="stroke: none; stroke-width: 1; stroke-dasharray: none; stroke-linecap: butt; stroke-dashoffset: 0; stroke-linejoin: miter; stroke-miterlimit: 4; fill: rgb(47,132,255); fill-rule: nonzero; opacity: 1;"  transform=" translate(-26.7, -19.42)" d="M 27.79 13.226 A 6.2 6.2 0 0 1 33.981 19.417 V 21.668 H 36.233 C 37.319 21.668 38.203 22.552 38.203 23.638 C 38.203 24.725 37.319 25.608 36.233 25.608 H 21.683 V 25.581 L 19.406 25.606 L 19.326 25.608 A 4.085 4.085 0 0 1 15.267 21.527 A 4.086 4.086 0 0 1 20.044 17.507 L 21.609 17.776 L 22.387 16.391 A 6.2 6.2 0 0 1 27.79 13.226 M 27.79 10.974 A 8.44 8.44 0 0 0 20.425 15.288 A 6.332 6.332 0 0 0 13.016 21.528 A 6.333 6.333 0 0 0 19.349 27.861 L 19.432 27.858 V 27.861 H 36.234 A 4.222 4.222 0 0 0 36.234 19.418 A 8.445 8.445 0 0 0 27.79 10.974" stroke-linecap="round" />
</g>
		<g transform="matrix(1 0 0 1 0 0)" id="tight-bounds"  >
<rect style="stroke: none; stroke-width: 1; stroke-dasharray: none; stroke-linecap: butt; stroke-dashoffset: 0; stroke-linejoin: miter; stroke-miterlimit: 4; fill: none; fill-rule: nonzero; opacity: 1;"  x="-197.76" y="-44.47796082353362" rx="0" ry="0" width="395.52" height="88.95592164706724" />
</g>
		<g transform="matrix(1 0 0 1 48.12 -12.28)"  >
<rect style="stroke: none; stroke-width: 1; stroke-dasharray: none; stroke-linecap: butt; stroke-dashoffset: 0; stroke-linejoin: miter; stroke-miterlimit: 4; fill: rgb(255,255,255); fill-opacity: 0; fill-rule: nonzero; opacity: 1;"  x="-156.6437761976991" y="-24.91677751293824" rx="2.5" ry="2.5" width="313.2875523953982" height="49.83355502587648" />
</g>
		<g transform="matrix(1 0 0 1 -6.65 24.38)"  >
<rect style="stroke: none; stroke-width: 1; stroke-dasharray: none; stroke-linecap: butt; stroke-dashoffset: 0; stroke-linejoin: miter; stroke-miterlimit: 4; fill: rgb(255,255,255); fill-opacity: 0; fill-rule: nonzero; opacity: 1;"  x="-101.88727604400259" y="-14.820778561098138" rx="2.5" ry="2.5" width="203.77455208800518" height="29.641557122196275" />
</g>
		<g transform="matrix(1 0 0 1 -154.11 1)"  >
<rect style="stroke: none; stroke-width: 1; stroke-dasharray: none; stroke-linecap: butt; stroke-dashoffset: 0; stroke-linejoin: miter; stroke-miterlimit: 4; fill: rgb(255,255,255); fill-opacity: 0; fill-rule: nonzero; opacity: 1;"  x="-42.565391170260455" y="-50.48437163316419" rx="2.5" ry="2.5" width="85.13078234052091" height="100.96874326632837" />
</g>
</g>
</g>
</svg>